<svg width="72" height="33" xmlns="http://www.w3.org/2000/svg" xmlns:xlink="http://www.w3.org/1999/xlink" xml:space="preserve" overflow="hidden"><defs><clipPath id="clip0"><rect x="1095" y="1216" width="72" height="33"/></clipPath></defs><g clip-path="url(#clip0)" transform="translate(-1095 -1216)"><path d="M1106.58 1216 1155.42 1216C1161.81 1216 1167 1223.39 1167 1232.5 1167 1241.61 1161.81 1249 1155.42 1249L1106.58 1249C1100.19 1249 1095 1241.61 1095 1232.5 1095 1223.39 1100.19 1216 1106.58 1216Z" fill="#FF8E5E" fill-rule="evenodd"/><path d="M1135 1232.5C1135 1224.49 1141.72 1218 1150 1218 1158.28 1218 1165 1224.49 1165 1232.5 1165 1240.51 1158.28 1247 1150 1247 1141.72 1247 1135 1240.51 1135 1232.5Z" fill="#E7E6E6" fill-rule="evenodd"/></g></svg>